<mxfile host="65bd71144e" pages="2">
    <diagram id="d11wOGM62BgjI-Tap80V" name="idÃ©e">
        <mxGraphModel dx="1085" dy="409" grid="1" gridSize="10" guides="1" tooltips="1" connect="1" arrows="1" fold="1" page="1" pageScale="1" pageWidth="827" pageHeight="1169" background="#283618" math="0" shadow="0">
            <root>
                <mxCell id="0"/>
                <mxCell id="1" parent="0"/>
                <mxCell id="6" style="edgeStyle=orthogonalEdgeStyle;html=1;exitX=0.25;exitY=1;exitDx=0;exitDy=0;entryX=0;entryY=0.25;entryDx=0;entryDy=0;labelBackgroundColor=#283618;strokeColor=#DDA15E;fontColor=#FEFAE0;" parent="1" source="3" target="4" edge="1">
                    <mxGeometry relative="1" as="geometry"/>
                </mxCell>
                <mxCell id="7" style="edgeStyle=orthogonalEdgeStyle;html=1;exitX=0.25;exitY=1;exitDx=0;exitDy=0;entryX=0;entryY=0.25;entryDx=0;entryDy=0;labelBackgroundColor=#283618;strokeColor=#DDA15E;fontColor=#FEFAE0;" parent="1" source="3" target="5" edge="1">
                    <mxGeometry relative="1" as="geometry"/>
                </mxCell>
                <mxCell id="3" value="&lt;h1&gt;idee 1&lt;/h1&gt;&lt;p&gt;blog avec editeur (suite de composant graphique pour cree les articles)&lt;br&gt;&lt;/p&gt;" style="text;html=1;strokeColor=#DDA15E;fillColor=none;spacing=5;spacingTop=-20;whiteSpace=wrap;overflow=hidden;rounded=0;fontColor=#FEFAE0;" parent="1" vertex="1">
                    <mxGeometry x="40" y="40" width="190" height="120" as="geometry"/>
                </mxCell>
                <mxCell id="4" value="&lt;h1&gt;idee&lt;/h1&gt;&lt;p&gt;chat sous les articles&lt;br&gt;&lt;br&gt;mention et image a voir en option&lt;/p&gt;" style="text;html=1;strokeColor=#DDA15E;fillColor=none;spacing=5;spacingTop=-20;whiteSpace=wrap;overflow=hidden;rounded=0;fontColor=#FEFAE0;" parent="1" vertex="1">
                    <mxGeometry x="120" y="160" width="190" height="120" as="geometry"/>
                </mxCell>
                <mxCell id="5" value="&lt;h1&gt;idee&lt;/h1&gt;&lt;p&gt;site marchant&amp;nbsp;&lt;/p&gt;" style="text;html=1;strokeColor=#DDA15E;fillColor=none;spacing=5;spacingTop=-20;whiteSpace=wrap;overflow=hidden;rounded=0;fontColor=#FEFAE0;" parent="1" vertex="1">
                    <mxGeometry x="120" y="280" width="190" height="120" as="geometry"/>
                </mxCell>
            </root>
        </mxGraphModel>
    </diagram>
    <diagram id="dJevwOj9svIjUYJSFQXq" name="structure">
        <mxGraphModel dx="1085" dy="409" grid="1" gridSize="10" guides="1" tooltips="1" connect="1" arrows="1" fold="1" page="1" pageScale="1" pageWidth="827" pageHeight="1169" background="#283618" math="0" shadow="0">
            <root>
                <mxCell id="SbrRnkA4MS1sYyffe3Pl-0"/>
                <mxCell id="SbrRnkA4MS1sYyffe3Pl-1" parent="SbrRnkA4MS1sYyffe3Pl-0"/>
                <mxCell id="SbrRnkA4MS1sYyffe3Pl-2" value="service de rendu html css" style="whiteSpace=wrap;html=1;fillColor=#BC6C25;strokeColor=#DDA15E;fontColor=#FEFAE0;rounded=0;" parent="SbrRnkA4MS1sYyffe3Pl-1" vertex="1">
                    <mxGeometry x="240" y="240" width="120" height="60" as="geometry"/>
                </mxCell>
                <mxCell id="XSni6BK7vrwpNHkpn47T-4" style="edgeStyle=orthogonalEdgeStyle;html=1;endArrow=none;endFill=0;exitX=1;exitY=0.5;exitDx=0;exitDy=0;entryX=1;entryY=0.5;entryDx=0;entryDy=0;labelBackgroundColor=#283618;strokeColor=#DDA15E;fontColor=#FEFAE0;" parent="SbrRnkA4MS1sYyffe3Pl-1" source="XSni6BK7vrwpNHkpn47T-0" target="XSni6BK7vrwpNHkpn47T-1" edge="1">
                    <mxGeometry relative="1" as="geometry">
                        <mxPoint x="760" y="230" as="targetPoint"/>
                    </mxGeometry>
                </mxCell>
                <mxCell id="n59j2sWu9A2zyub4zQ4p-10" value="get&lt;br&gt;add &lt;br&gt;mod&lt;br&gt;del" style="edgeLabel;html=1;align=center;verticalAlign=middle;resizable=0;points=[];fontColor=#FEFAE0;labelBackgroundColor=#283618;rounded=1;" parent="XSni6BK7vrwpNHkpn47T-4" connectable="0" vertex="1">
                    <mxGeometry x="-0.6273" y="4" relative="1" as="geometry">
                        <mxPoint x="5" y="-31" as="offset"/>
                    </mxGeometry>
                </mxCell>
                <mxCell id="XSni6BK7vrwpNHkpn47T-0" value="database" style="whiteSpace=wrap;html=1;fillColor=#BC6C25;strokeColor=#DDA15E;fontColor=#FEFAE0;rounded=0;" parent="SbrRnkA4MS1sYyffe3Pl-1" vertex="1">
                    <mxGeometry x="400" y="120" width="120" height="60" as="geometry"/>
                </mxCell>
                <mxCell id="XSni6BK7vrwpNHkpn47T-7" style="edgeStyle=orthogonalEdgeStyle;html=1;exitX=0;exitY=0.5;exitDx=0;exitDy=0;entryX=1;entryY=0.5;entryDx=0;entryDy=0;endArrow=none;endFill=0;labelBackgroundColor=#283618;strokeColor=#DDA15E;fontColor=#FEFAE0;" parent="SbrRnkA4MS1sYyffe3Pl-1" source="XSni6BK7vrwpNHkpn47T-1" target="SbrRnkA4MS1sYyffe3Pl-2" edge="1">
                    <mxGeometry relative="1" as="geometry"/>
                </mxCell>
                <mxCell id="XSni6BK7vrwpNHkpn47T-1" value="api data" style="whiteSpace=wrap;html=1;fillColor=#BC6C25;strokeColor=#DDA15E;fontColor=#FEFAE0;rounded=0;" parent="SbrRnkA4MS1sYyffe3Pl-1" vertex="1">
                    <mxGeometry x="240" y="160" width="120" height="60" as="geometry"/>
                </mxCell>
                <mxCell id="XSni6BK7vrwpNHkpn47T-8" style="edgeStyle=orthogonalEdgeStyle;html=1;exitX=1;exitY=0.5;exitDx=0;exitDy=0;entryX=0;entryY=0.25;entryDx=0;entryDy=0;endArrow=none;endFill=0;fillColor=#BC6C25;strokeColor=#DDA15E;strokeWidth=2;labelBackgroundColor=#283618;fontColor=#FEFAE0;" parent="SbrRnkA4MS1sYyffe3Pl-1" source="XSni6BK7vrwpNHkpn47T-2" target="XSni6BK7vrwpNHkpn47T-1" edge="1">
                    <mxGeometry relative="1" as="geometry"/>
                </mxCell>
                <mxCell id="XSni6BK7vrwpNHkpn47T-9" style="edgeStyle=orthogonalEdgeStyle;html=1;exitX=1;exitY=0.5;exitDx=0;exitDy=0;entryX=0;entryY=0.25;entryDx=0;entryDy=0;endArrow=none;endFill=0;fillColor=#BC6C25;strokeColor=#DDA15E;strokeWidth=2;labelBackgroundColor=#283618;fontColor=#FEFAE0;" parent="SbrRnkA4MS1sYyffe3Pl-1" source="XSni6BK7vrwpNHkpn47T-2" target="SbrRnkA4MS1sYyffe3Pl-2" edge="1">
                    <mxGeometry relative="1" as="geometry"/>
                </mxCell>
                <mxCell id="XSni6BK7vrwpNHkpn47T-2" value="clients" style="whiteSpace=wrap;html=1;fillColor=#BC6C25;strokeColor=#DDA15E;fontColor=#FEFAE0;rounded=0;" parent="SbrRnkA4MS1sYyffe3Pl-1" vertex="1">
                    <mxGeometry x="40" y="200" width="120" height="60" as="geometry"/>
                </mxCell>
                <mxCell id="XSni6BK7vrwpNHkpn47T-6" style="edgeStyle=orthogonalEdgeStyle;html=1;exitX=1;exitY=0.5;exitDx=0;exitDy=0;entryX=1;entryY=0.5;entryDx=0;entryDy=0;endArrow=none;endFill=0;labelBackgroundColor=#283618;strokeColor=#DDA15E;fontColor=#FEFAE0;" parent="SbrRnkA4MS1sYyffe3Pl-1" source="XSni6BK7vrwpNHkpn47T-5" target="XSni6BK7vrwpNHkpn47T-1" edge="1">
                    <mxGeometry relative="1" as="geometry"/>
                </mxCell>
                <mxCell id="n59j2sWu9A2zyub4zQ4p-8" value="add mod del" style="edgeLabel;html=1;align=center;verticalAlign=middle;resizable=0;points=[];fontColor=#FEFAE0;labelBackgroundColor=#283618;rounded=1;" parent="XSni6BK7vrwpNHkpn47T-6" connectable="0" vertex="1">
                    <mxGeometry x="-0.0632" y="2" relative="1" as="geometry">
                        <mxPoint x="58" y="-2" as="offset"/>
                    </mxGeometry>
                </mxCell>
                <mxCell id="n59j2sWu9A2zyub4zQ4p-6" style="edgeStyle=orthogonalEdgeStyle;curved=0;rounded=1;orthogonalLoop=1;jettySize=auto;html=1;exitX=1;exitY=0.5;exitDx=0;exitDy=0;entryX=1;entryY=0.5;entryDx=0;entryDy=0;fontColor=#FEFAE0;endArrow=none;endFill=0;strokeColor=#DDA15E;strokeWidth=1;fillColor=#BC6C25;labelBackgroundColor=#283618;" parent="SbrRnkA4MS1sYyffe3Pl-1" source="XSni6BK7vrwpNHkpn47T-5" target="SbrRnkA4MS1sYyffe3Pl-2" edge="1">
                    <mxGeometry relative="1" as="geometry"/>
                </mxCell>
                <mxCell id="n59j2sWu9A2zyub4zQ4p-7" value="get" style="edgeLabel;html=1;align=center;verticalAlign=middle;resizable=0;points=[];fontColor=#FEFAE0;labelBackgroundColor=#283618;rounded=1;" parent="n59j2sWu9A2zyub4zQ4p-6" connectable="0" vertex="1">
                    <mxGeometry x="0.2125" y="-2" relative="1" as="geometry">
                        <mxPoint as="offset"/>
                    </mxGeometry>
                </mxCell>
                <mxCell id="XSni6BK7vrwpNHkpn47T-5" value="&lt;div&gt;Object&amp;nbsp;&lt;span&gt;Storage&lt;/span&gt;&lt;/div&gt;" style="whiteSpace=wrap;html=1;fillColor=#BC6C25;strokeColor=#DDA15E;fontColor=#FEFAE0;rounded=0;" parent="SbrRnkA4MS1sYyffe3Pl-1" vertex="1">
                    <mxGeometry x="560" y="120" width="120" height="60" as="geometry"/>
                </mxCell>
                <mxCell id="n59j2sWu9A2zyub4zQ4p-0" value="" style="endArrow=none;dashed=1;html=1;dashPattern=1 3;strokeWidth=2;rounded=1;fontColor=#FEFAE0;fillColor=#BC6C25;curved=0;labelBackgroundColor=#283618;strokeColor=#DDA15E;" parent="SbrRnkA4MS1sYyffe3Pl-1" edge="1">
                    <mxGeometry width="50" height="50" relative="1" as="geometry">
                        <mxPoint x="220" y="530" as="sourcePoint"/>
                        <mxPoint x="220" y="40" as="targetPoint"/>
                    </mxGeometry>
                </mxCell>
                <mxCell id="n59j2sWu9A2zyub4zQ4p-4" style="edgeStyle=orthogonalEdgeStyle;curved=0;rounded=1;orthogonalLoop=1;jettySize=auto;html=1;exitX=0;exitY=0.5;exitDx=0;exitDy=0;entryX=1;entryY=0.25;entryDx=0;entryDy=0;fontColor=#FEFAE0;endArrow=none;endFill=0;strokeColor=#DDA15E;strokeWidth=2;fillColor=#BC6C25;labelBackgroundColor=#283618;" parent="SbrRnkA4MS1sYyffe3Pl-1" source="n59j2sWu9A2zyub4zQ4p-1" target="XSni6BK7vrwpNHkpn47T-1" edge="1">
                    <mxGeometry relative="1" as="geometry">
                        <Array as="points">
                            <mxPoint x="20" y="110"/>
                            <mxPoint x="20" y="150"/>
                            <mxPoint x="380" y="150"/>
                            <mxPoint x="380" y="175"/>
                        </Array>
                    </mxGeometry>
                </mxCell>
                <mxCell id="n59j2sWu9A2zyub4zQ4p-5" style="edgeStyle=orthogonalEdgeStyle;curved=0;rounded=1;orthogonalLoop=1;jettySize=auto;html=1;exitX=0;exitY=0.5;exitDx=0;exitDy=0;entryX=1;entryY=0.25;entryDx=0;entryDy=0;fontColor=#FEFAE0;endArrow=none;endFill=0;strokeColor=#DDA15E;strokeWidth=2;fillColor=#BC6C25;labelBackgroundColor=#283618;" parent="SbrRnkA4MS1sYyffe3Pl-1" source="n59j2sWu9A2zyub4zQ4p-1" target="SbrRnkA4MS1sYyffe3Pl-2" edge="1">
                    <mxGeometry relative="1" as="geometry">
                        <Array as="points">
                            <mxPoint x="20" y="110"/>
                            <mxPoint x="20" y="150"/>
                            <mxPoint x="380" y="150"/>
                            <mxPoint x="380" y="255"/>
                        </Array>
                    </mxGeometry>
                </mxCell>
                <mxCell id="n59j2sWu9A2zyub4zQ4p-1" value="external services" style="whiteSpace=wrap;html=1;fillColor=#BC6C25;strokeColor=#DDA15E;fontColor=#FEFAE0;rounded=0;" parent="SbrRnkA4MS1sYyffe3Pl-1" vertex="1">
                    <mxGeometry x="40" y="80" width="120" height="60" as="geometry"/>
                </mxCell>
                <mxCell id="XSni6BK7vrwpNHkpn47T-79" value="" style="shape=table;startSize=0;container=1;collapsible=0;childLayout=tableLayout;fillColor=#BC6C25;strokeColor=#DDA15E;fontColor=#FEFAE0;rounded=0;" parent="SbrRnkA4MS1sYyffe3Pl-1" vertex="1">
                    <mxGeometry x="400" y="280" width="280" height="200" as="geometry"/>
                </mxCell>
                <mxCell id="XSni6BK7vrwpNHkpn47T-80" value="" style="shape=partialRectangle;collapsible=0;dropTarget=0;pointerEvents=0;fillColor=none;top=0;left=0;bottom=0;right=0;points=[[0,0.5],[1,0.5]];portConstraint=eastwest;strokeColor=#DDA15E;fontColor=#FEFAE0;rounded=1;" parent="XSni6BK7vrwpNHkpn47T-79" vertex="1">
                    <mxGeometry width="280" height="40" as="geometry"/>
                </mxCell>
                <mxCell id="XSni6BK7vrwpNHkpn47T-81" value="SERVICE" style="shape=partialRectangle;html=1;whiteSpace=wrap;connectable=0;overflow=hidden;fillColor=none;top=0;left=0;bottom=0;right=0;pointerEvents=1;strokeColor=#DDA15E;fontColor=#FEFAE0;rounded=1;" parent="XSni6BK7vrwpNHkpn47T-80" vertex="1">
                    <mxGeometry width="140" height="40" as="geometry">
                        <mxRectangle width="140" height="40" as="alternateBounds"/>
                    </mxGeometry>
                </mxCell>
                <mxCell id="XSni6BK7vrwpNHkpn47T-82" value="lib / framework" style="shape=partialRectangle;html=1;whiteSpace=wrap;connectable=0;overflow=hidden;fillColor=none;top=0;left=0;bottom=0;right=0;pointerEvents=1;strokeColor=#DDA15E;fontColor=#FEFAE0;rounded=1;" parent="XSni6BK7vrwpNHkpn47T-80" vertex="1">
                    <mxGeometry x="140" width="140" height="40" as="geometry">
                        <mxRectangle width="140" height="40" as="alternateBounds"/>
                    </mxGeometry>
                </mxCell>
                <mxCell id="XSni6BK7vrwpNHkpn47T-83" value="" style="shape=partialRectangle;collapsible=0;dropTarget=0;pointerEvents=0;fillColor=none;top=0;left=0;bottom=0;right=0;points=[[0,0.5],[1,0.5]];portConstraint=eastwest;strokeColor=#DDA15E;fontColor=#FEFAE0;rounded=1;" parent="XSni6BK7vrwpNHkpn47T-79" vertex="1">
                    <mxGeometry y="40" width="280" height="40" as="geometry"/>
                </mxCell>
                <mxCell id="XSni6BK7vrwpNHkpn47T-84" value="api" style="shape=partialRectangle;html=1;whiteSpace=wrap;connectable=0;overflow=hidden;top=0;left=0;bottom=0;right=0;pointerEvents=1;rounded=1;" parent="XSni6BK7vrwpNHkpn47T-83" vertex="1">
                    <mxGeometry width="140" height="40" as="geometry">
                        <mxRectangle width="140" height="40" as="alternateBounds"/>
                    </mxGeometry>
                </mxCell>
                <mxCell id="XSni6BK7vrwpNHkpn47T-85" value="hasura ?" style="shape=partialRectangle;html=1;whiteSpace=wrap;connectable=0;overflow=hidden;top=0;left=0;bottom=0;right=0;pointerEvents=1;rounded=1;" parent="XSni6BK7vrwpNHkpn47T-83" vertex="1">
                    <mxGeometry x="140" width="140" height="40" as="geometry">
                        <mxRectangle width="140" height="40" as="alternateBounds"/>
                    </mxGeometry>
                </mxCell>
                <mxCell id="XSni6BK7vrwpNHkpn47T-86" value="" style="shape=partialRectangle;collapsible=0;dropTarget=0;pointerEvents=0;fillColor=none;top=0;left=0;bottom=0;right=0;points=[[0,0.5],[1,0.5]];portConstraint=eastwest;strokeColor=#DDA15E;fontColor=#FEFAE0;rounded=1;" parent="XSni6BK7vrwpNHkpn47T-79" vertex="1">
                    <mxGeometry y="80" width="280" height="40" as="geometry"/>
                </mxCell>
                <mxCell id="XSni6BK7vrwpNHkpn47T-87" value="render" style="shape=partialRectangle;html=1;whiteSpace=wrap;connectable=0;overflow=hidden;top=0;left=0;bottom=0;right=0;pointerEvents=1;rounded=1;" parent="XSni6BK7vrwpNHkpn47T-86" vertex="1">
                    <mxGeometry width="140" height="40" as="geometry">
                        <mxRectangle width="140" height="40" as="alternateBounds"/>
                    </mxGeometry>
                </mxCell>
                <mxCell id="XSni6BK7vrwpNHkpn47T-88" value="nextJs ?" style="shape=partialRectangle;html=1;whiteSpace=wrap;connectable=0;overflow=hidden;top=0;left=0;bottom=0;right=0;pointerEvents=1;rounded=1;" parent="XSni6BK7vrwpNHkpn47T-86" vertex="1">
                    <mxGeometry x="140" width="140" height="40" as="geometry">
                        <mxRectangle width="140" height="40" as="alternateBounds"/>
                    </mxGeometry>
                </mxCell>
                <mxCell id="XSni6BK7vrwpNHkpn47T-89" value="" style="shape=partialRectangle;collapsible=0;dropTarget=0;pointerEvents=0;fillColor=none;top=0;left=0;bottom=0;right=0;points=[[0,0.5],[1,0.5]];portConstraint=eastwest;strokeColor=#DDA15E;fontColor=#FEFAE0;rounded=1;" parent="XSni6BK7vrwpNHkpn47T-79" vertex="1">
                    <mxGeometry y="120" width="280" height="40" as="geometry"/>
                </mxCell>
                <mxCell id="XSni6BK7vrwpNHkpn47T-90" value="database" style="shape=partialRectangle;html=1;whiteSpace=wrap;connectable=0;overflow=hidden;top=0;left=0;bottom=0;right=0;pointerEvents=1;rounded=1;" parent="XSni6BK7vrwpNHkpn47T-89" vertex="1">
                    <mxGeometry width="140" height="40" as="geometry">
                        <mxRectangle width="140" height="40" as="alternateBounds"/>
                    </mxGeometry>
                </mxCell>
                <mxCell id="XSni6BK7vrwpNHkpn47T-91" value="postgresql" style="shape=partialRectangle;html=1;whiteSpace=wrap;connectable=0;overflow=hidden;top=0;left=0;bottom=0;right=0;pointerEvents=1;rounded=1;" parent="XSni6BK7vrwpNHkpn47T-89" vertex="1">
                    <mxGeometry x="140" width="140" height="40" as="geometry">
                        <mxRectangle width="140" height="40" as="alternateBounds"/>
                    </mxGeometry>
                </mxCell>
                <mxCell id="XSni6BK7vrwpNHkpn47T-98" value="" style="shape=partialRectangle;collapsible=0;dropTarget=0;pointerEvents=0;fillColor=none;top=0;left=0;bottom=0;right=0;points=[[0,0.5],[1,0.5]];portConstraint=eastwest;strokeColor=#DDA15E;fontColor=#FEFAE0;rounded=1;" parent="XSni6BK7vrwpNHkpn47T-79" vertex="1">
                    <mxGeometry y="160" width="280" height="40" as="geometry"/>
                </mxCell>
                <mxCell id="XSni6BK7vrwpNHkpn47T-99" value="&lt;span style=&quot;color: rgb(254 , 250 , 224)&quot;&gt;Object&amp;nbsp;&lt;/span&gt;&lt;span style=&quot;color: rgb(254 , 250 , 224)&quot;&gt;Storage&lt;/span&gt;" style="shape=partialRectangle;html=1;whiteSpace=wrap;connectable=0;overflow=hidden;top=0;left=0;bottom=0;right=0;pointerEvents=1;rounded=1;" parent="XSni6BK7vrwpNHkpn47T-98" vertex="1">
                    <mxGeometry width="140" height="40" as="geometry">
                        <mxRectangle width="140" height="40" as="alternateBounds"/>
                    </mxGeometry>
                </mxCell>
                <mxCell id="XSni6BK7vrwpNHkpn47T-100" value="minio ?" style="shape=partialRectangle;html=1;whiteSpace=wrap;connectable=0;overflow=hidden;top=0;left=0;bottom=0;right=0;pointerEvents=1;rounded=1;" parent="XSni6BK7vrwpNHkpn47T-98" vertex="1">
                    <mxGeometry x="140" width="140" height="40" as="geometry">
                        <mxRectangle width="140" height="40" as="alternateBounds"/>
                    </mxGeometry>
                </mxCell>
            </root>
        </mxGraphModel>
    </diagram>
    <diagram id="znhRzA62y-ge9oQfR1l0" name="phase pour le project">
        <mxGraphModel dx="1085" dy="409" grid="1" gridSize="10" guides="1" tooltips="1" connect="1" arrows="1" fold="1" page="1" pageScale="1" pageWidth="827" pageHeight="1169" math="0" shadow="0">
            <root>
                <mxCell id="4vCSaw_WBNNyNbJKUp6Y-0"/>
                <mxCell id="4vCSaw_WBNNyNbJKUp6Y-1" parent="4vCSaw_WBNNyNbJKUp6Y-0"/>
                <mxCell id="4vCSaw_WBNNyNbJKUp6Y-5" style="edgeStyle=none;html=1;exitX=1;exitY=0.5;exitDx=0;exitDy=0;" edge="1" parent="4vCSaw_WBNNyNbJKUp6Y-1" source="4vCSaw_WBNNyNbJKUp6Y-2" target="4vCSaw_WBNNyNbJKUp6Y-3">
                    <mxGeometry relative="1" as="geometry"/>
                </mxCell>
                <mxCell id="4vCSaw_WBNNyNbJKUp6Y-2" value="demo&lt;br&gt;mini de chez mini&lt;br&gt;avec les techno choisi" style="rounded=0;whiteSpace=wrap;html=1;" vertex="1" parent="4vCSaw_WBNNyNbJKUp6Y-1">
                    <mxGeometry x="40" y="160" width="120" height="60" as="geometry"/>
                </mxCell>
                <mxCell id="4vCSaw_WBNNyNbJKUp6Y-6" style="edgeStyle=none;html=1;exitX=1;exitY=0.5;exitDx=0;exitDy=0;entryX=0;entryY=0.5;entryDx=0;entryDy=0;" edge="1" parent="4vCSaw_WBNNyNbJKUp6Y-1" source="4vCSaw_WBNNyNbJKUp6Y-3" target="4vCSaw_WBNNyNbJKUp6Y-4">
                    <mxGeometry relative="1" as="geometry"/>
                </mxCell>
                <mxCell id="4vCSaw_WBNNyNbJKUp6Y-3" value="demo prod&amp;nbsp;&lt;br&gt;en infrastructure as code" style="rounded=0;whiteSpace=wrap;html=1;" vertex="1" parent="4vCSaw_WBNNyNbJKUp6Y-1">
                    <mxGeometry x="240" y="160" width="120" height="60" as="geometry"/>
                </mxCell>
                <mxCell id="4vCSaw_WBNNyNbJKUp6Y-8" style="edgeStyle=orthogonalEdgeStyle;html=1;exitX=1;exitY=0.5;exitDx=0;exitDy=0;entryX=0;entryY=0.5;entryDx=0;entryDy=0;" edge="1" parent="4vCSaw_WBNNyNbJKUp6Y-1" source="4vCSaw_WBNNyNbJKUp6Y-4" target="4vCSaw_WBNNyNbJKUp6Y-7">
                    <mxGeometry relative="1" as="geometry"/>
                </mxCell>
                <mxCell id="4vCSaw_WBNNyNbJKUp6Y-4" value="automatisation du dev a la prod" style="rounded=0;whiteSpace=wrap;html=1;" vertex="1" parent="4vCSaw_WBNNyNbJKUp6Y-1">
                    <mxGeometry x="440" y="160" width="120" height="60" as="geometry"/>
                </mxCell>
                <mxCell id="4vCSaw_WBNNyNbJKUp6Y-10" style="edgeStyle=orthogonalEdgeStyle;html=1;exitX=1;exitY=0.5;exitDx=0;exitDy=0;entryX=0;entryY=0.5;entryDx=0;entryDy=0;" edge="1" parent="4vCSaw_WBNNyNbJKUp6Y-1" source="4vCSaw_WBNNyNbJKUp6Y-7" target="4vCSaw_WBNNyNbJKUp6Y-9">
                    <mxGeometry relative="1" as="geometry"/>
                </mxCell>
                <mxCell id="4vCSaw_WBNNyNbJKUp6Y-7" value="nouvelle fonctionnalitÃ©" style="rounded=0;whiteSpace=wrap;html=1;" vertex="1" parent="4vCSaw_WBNNyNbJKUp6Y-1">
                    <mxGeometry x="40" y="280" width="120" height="60" as="geometry"/>
                </mxCell>
                <mxCell id="4vCSaw_WBNNyNbJKUp6Y-12" style="edgeStyle=orthogonalEdgeStyle;html=1;exitX=1;exitY=0.5;exitDx=0;exitDy=0;entryX=0;entryY=0.5;entryDx=0;entryDy=0;" edge="1" parent="4vCSaw_WBNNyNbJKUp6Y-1" source="4vCSaw_WBNNyNbJKUp6Y-9" target="4vCSaw_WBNNyNbJKUp6Y-11">
                    <mxGeometry relative="1" as="geometry"/>
                </mxCell>
                <mxCell id="4vCSaw_WBNNyNbJKUp6Y-9" value="test de non regression" style="rounded=0;whiteSpace=wrap;html=1;" vertex="1" parent="4vCSaw_WBNNyNbJKUp6Y-1">
                    <mxGeometry x="240" y="280" width="120" height="60" as="geometry"/>
                </mxCell>
                <mxCell id="4vCSaw_WBNNyNbJKUp6Y-13" style="edgeStyle=orthogonalEdgeStyle;html=1;exitX=1;exitY=0.5;exitDx=0;exitDy=0;entryX=0;entryY=0.75;entryDx=0;entryDy=0;" edge="1" parent="4vCSaw_WBNNyNbJKUp6Y-1" source="4vCSaw_WBNNyNbJKUp6Y-11" target="4vCSaw_WBNNyNbJKUp6Y-7">
                    <mxGeometry relative="1" as="geometry">
                        <Array as="points">
                            <mxPoint x="570" y="310"/>
                            <mxPoint x="570" y="350"/>
                            <mxPoint x="30" y="350"/>
                            <mxPoint x="30" y="325"/>
                        </Array>
                    </mxGeometry>
                </mxCell>
                <mxCell id="4vCSaw_WBNNyNbJKUp6Y-11" value="deploiment" style="rounded=0;whiteSpace=wrap;html=1;" vertex="1" parent="4vCSaw_WBNNyNbJKUp6Y-1">
                    <mxGeometry x="440" y="280" width="120" height="60" as="geometry"/>
                </mxCell>
            </root>
        </mxGraphModel>
    </diagram>
</mxfile>